<?xml version="1.0" encoding="UTF-8"?>
<svg width="30px" height="30px" viewBox="0 0 30 30" version="1.1" xmlns="http://www.w3.org/2000/svg" xmlns:xlink="http://www.w3.org/1999/xlink">
    <!-- Generator: Sketch 52.5 (67469) - http://www.bohemiancoding.com/sketch -->
    <title>Artboard Copy 8</title>
    <desc>Created with Sketch.</desc>
    <g id="Artboard-Copy-8" stroke="none" stroke-width="1" fill="none" fill-rule="evenodd">
        <path d="M6.63811212,9.92567051 C7.1376691,9.43039677 7.76274112,9.18293844 8.5118978,9.18293844 C9.26141208,9.18293844 9.88576891,9.43039677 10.3853259,9.92567051 C10.8852405,10.4205872 11.1351978,11.0465532 11.1351978,11.8024973 C11.1351978,12.5591556 10.8852405,13.1844075 10.3853259,13.6796812 C9.88576891,14.1742408 9.26141208,14.4220562 8.5118978,14.4220562 C7.76274112,14.4220562 7.1376691,14.1742408 6.63811212,13.6796812 C6.13855514,13.1844075 5.88859785,12.5591556 5.88859785,11.8024973 C5.88859785,11.0465532 6.13855514,10.4205872 6.63811212,9.92567051 M15.2389314,7.06329538 C15.9004779,6.40733441 16.728305,6.07953247 17.7209823,6.07953247 C18.7140172,6.07953247 19.5414867,6.40733441 20.2033907,7.06329538 C20.8649372,7.71889926 21.196068,8.54840244 21.196068,9.5496624 C21.196068,10.5523507 20.8649372,11.3804255 20.2033907,12.0363865 C19.5414867,12.6919904 18.7140172,13.0197923 17.7209823,13.0197923 C16.728305,13.0197923 15.9004779,12.6919904 15.2389314,12.0363865 C14.5770274,11.3804255 14.2458966,10.5523507 14.2458966,9.5496624 C14.2458966,8.54840244 14.5770274,7.71889926 15.2389314,7.06329538 M22.3757663,22.2303842 C20.9285887,23.0288211 19.3412348,23.4494646 17.6144197,23.4919574 C15.8868894,23.4494646 14.299893,23.0288211 12.8534306,22.2303842 C12.461509,22.0143491 12.0914006,21.7768891 11.7391718,21.5215749 C10.7243238,22.0272041 9.62258069,22.2975157 8.43143945,22.3267965 C7.12729892,22.2950161 5.92972101,21.9775696 4.83763294,21.3748139 C3.74518728,20.7727725 2.85728463,19.9668368 2.17285223,18.957721 C2.30265837,17.9161107 3.08507118,17.1194591 4.51973304,16.5652667 C5.95403731,16.0121456 7.25782025,15.7354065 8.43143945,15.7354065 C9.37727211,15.7354065 10.408927,15.9178757 11.5242586,16.277458 C11.8035385,16.1292687 12.0999828,15.9878639 12.432544,15.8589571 C14.332434,15.1262233 16.0599643,14.7594994 17.6144197,14.7594994 C19.1692327,14.7594994 20.8960478,15.1262233 22.7966529,15.8589571 C24.6157269,16.562053 26.1759038,18.9334393 26.1172586,19.0123546 C26.1165434,19.0134259 26.1154706,19.0148542 26.1143979,19.0162825 C27.6062745,19.4222856 29.5737495,18.6084941 30,15.0355243 L29.9867691,13.7339578 C29.949937,13.3022448 29.893795,12.867318 29.8183429,12.4334625 C28.3994151,4.27305096 20.622847,-1.19388557 12.4511389,0.223732852 C4.27871557,1.64135127 -1.1953133,9.40611514 0.223972081,17.5665267 C1.64325746,25.7272953 9.41911045,31.1938747 17.5915337,29.7762563 C21.7542702,29.054235 24.5127402,27.6373308 26.7215902,24.4057321 L26.7262389,24.396448 C27.8691052,22.2282417 26.4297946,20.6367239 25.1303028,20.2592875 C24.9640222,20.4571113 24.8574596,20.5778053 24.8574596,20.5778053 C24.5535058,20.5778053 23.21003,21.7704616 22.3757663,22.2303842" id="Usericon_default" fill="#767680"></path>
    </g>
</svg>